<svg width="131" height="150" viewBox="0 0 131 150" fill="none" xmlns="http://www.w3.org/2000/svg">
<path d="M121.527 108.787C114.359 121.203 103.294 130.907 90.0487 136.393C76.8035 141.879 62.1182 142.842 48.2702 139.131C34.4222 135.421 22.1856 127.245 13.4581 115.871C4.73059 104.497 1.31023e-06 90.5609 0 76.2244C-1.31023e-06 61.8879 4.73059 47.952 13.4581 36.5782C22.1856 25.2043 34.4222 17.028 48.2702 13.3174C62.1181 9.60689 76.8035 10.5694 90.0487 16.0557C103.294 21.5421 114.359 31.2456 121.527 43.6613L95.4107 58.7395C91.5617 52.0728 85.6204 46.8625 78.5084 43.9166C71.3963 40.9707 63.5109 40.4538 56.0752 42.4462C48.6395 44.4386 42.069 48.8289 37.3827 54.9362C32.6964 61.0434 30.1563 68.5263 30.1563 76.2244C30.1563 83.9224 32.6964 91.4053 37.3827 97.5126C42.069 103.62 48.6395 108.01 56.0752 110.003C63.511 111.995 71.3963 111.478 78.5084 108.532C85.6204 105.586 91.5617 100.376 95.4107 93.7092L121.527 108.787Z" fill="#2553D7"/>
<rect x="96.3865" y="0.678162" width="15.6303" height="33.8655" transform="rotate(30 96.3865 0.678162)" fill="#2553D7"/>
<rect x="37.7732" y="112.695" width="15.6303" height="33.8655" transform="rotate(30 37.7732 112.695)" fill="#2553D7"/>
</svg>
